<svg xmlns="http://www.w3.org/2000/svg" width="737" height="944" viewBox="0 0 737 944">
<g>
<path d="M 632.00 848.51 C627.27,849.77 600.64,849.98 441.25,849.99 C339.36,849.99 256.00,849.66 256.00,849.24 C256.00,848.23 277.65,826.93 296.21,809.68 L 310.91 796.00 L 588.05 796.00 L 586.54 793.07 C585.71,791.46 571.61,767.73 555.21,740.32 C538.81,712.92 522.21,685.10 518.32,678.50 C514.43,671.90 507.23,659.75 502.31,651.50 C497.39,643.25 491.56,633.35 489.34,629.50 C487.13,625.65 477.96,610.12 468.98,595.00 C459.99,579.88 449.66,562.33 446.02,556.00 C442.38,549.67 438.17,542.47 436.67,540.00 C435.17,537.53 431.03,530.56 427.47,524.52 L 421.00 513.53 L 421.00 415.80 C421.00,319.79 421.04,317.98 423.05,312.61 C430.54,292.58 457.85,289.22 469.54,306.89 C470.17,307.83 470.72,308.65 471.21,309.51 C474.98,316.12 474.98,324.87 474.99,407.69 L 474.99 410.69 L 475.00 499.89 L 477.18 503.69 C478.38,505.79 485.08,517.17 492.06,529.00 C499.05,540.83 505.65,552.08 506.73,554.00 C508.69,557.49 515.23,568.58 536.51,604.50 C542.70,614.95 551.13,629.35 555.24,636.50 C563.41,650.72 571.66,664.72 584.99,687.00 C589.76,694.97 596.97,707.12 601.01,714.00 C612.52,733.60 616.69,740.65 633.91,769.62 C654.09,803.56 655.29,806.37 654.84,818.53 C654.55,826.31 654.06,828.50 651.50,833.47 C647.89,840.47 640.35,846.29 632.00,848.51 ZM 268.25 846.22 C270.59,846.40 352.49,846.67 450.25,846.81 L 627.99 847.06 L 635.39 843.46 C644.10,839.21 648.58,834.27 650.60,826.67 C653.08,817.34 651.83,805.29 647.84,800.12 C646.83,798.80 646.00,796.75 646.00,795.55 C646.00,794.34 644.88,792.38 643.50,791.19 C642.12,789.99 641.00,788.13 641.00,787.06 C641.00,785.98 640.41,784.74 639.70,784.30 C637.99,783.25 629.84,770.73 627.12,765.00 C625.95,762.53 623.87,758.98 622.51,757.12 C621.14,755.26 619.62,752.30 619.14,750.55 C618.66,748.79 616.47,744.69 614.28,741.43 C606.01,729.11 603.00,724.26 603.00,723.29 C603.00,722.74 601.88,721.08 600.50,719.59 C599.12,718.11 598.00,716.35 598.00,715.67 C598.00,713.59 592.48,703.67 588.13,697.94 C585.86,694.95 582.87,690.19 581.48,687.36 C580.10,684.54 577.77,680.49 576.31,678.36 C574.84,676.24 572.35,672.03 570.76,669.00 C565.31,658.63 561.45,652.10 559.39,649.80 C558.25,648.54 556.42,645.70 555.32,643.50 C549.27,631.45 542.14,619.06 539.78,616.54 C538.76,615.44 537.65,613.41 537.32,612.02 C536.98,610.63 535.93,608.38 534.98,607.00 C534.03,605.62 531.85,601.71 530.14,598.31 C528.43,594.90 526.41,591.75 525.65,591.31 C524.89,590.86 523.48,588.92 522.51,587.00 C521.54,585.08 519.37,581.34 517.68,578.70 C515.99,576.07 514.50,573.17 514.36,572.28 C514.23,571.38 513.22,569.49 512.11,568.07 C511.00,566.66 509.10,563.47 507.89,561.00 C506.69,558.53 504.91,555.60 503.95,554.50 C502.99,553.40 500.57,549.41 498.59,545.64 C496.60,541.87 493.97,537.48 492.74,535.88 C491.51,534.28 489.49,531.67 488.25,530.09 C487.01,528.51 486.00,526.48 486.00,525.59 C486.00,523.78 480.35,513.30 478.17,511.06 C477.40,510.27 475.87,507.57 474.76,505.06 C472.81,500.62 472.76,498.22 472.62,411.50 C472.53,361.33 472.08,321.89 471.58,321.09 C471.09,320.32 470.75,318.15 470.82,316.27 C470.91,313.86 470.25,312.21 468.59,310.67 C467.30,309.48 466.07,307.62 465.87,306.56 C465.42,304.23 453.31,297.98 447.81,297.25 C445.01,296.87 443.02,297.38 439.68,299.34 C437.25,300.76 434.99,301.65 434.65,301.31 C434.31,300.97 432.79,301.97 431.27,303.52 C429.74,305.07 429.17,305.96 430.00,305.48 C430.83,305.00 430.25,306.16 428.73,308.06 C427.21,309.95 425.46,312.62 424.85,314.00 C424.06,315.78 423.75,344.55 423.78,414.00 C423.83,509.06 423.88,511.62 425.82,516.11 C426.91,518.64 428.48,520.97 429.31,521.29 C430.14,521.61 431.11,523.23 431.48,524.90 C431.84,526.57 433.24,529.54 434.57,531.51 C435.91,533.48 437.00,535.25 437.00,535.44 C437.00,535.64 438.58,538.14 440.50,541.00 C442.42,543.86 444.00,546.80 444.00,547.52 C444.00,548.25 445.13,550.19 446.51,551.83 C449.26,555.10 455.53,566.14 459.96,575.50 C461.52,578.80 463.96,582.76 465.39,584.29 C466.81,585.82 469.15,589.65 470.58,592.79 C472.01,595.93 474.26,599.93 475.59,601.68 C476.91,603.43 478.00,605.09 478.00,605.36 C478.00,605.64 479.72,608.48 481.81,611.68 C483.91,614.88 486.89,619.97 488.43,623.00 C489.98,626.03 492.54,630.44 494.12,632.80 C495.70,635.17 497.00,637.46 497.00,637.90 C497.00,638.33 497.90,639.50 499.00,640.50 C500.10,641.50 501.00,643.34 501.00,644.60 C501.00,645.86 501.84,647.47 502.86,648.19 C503.88,648.91 505.05,650.55 505.45,651.84 C506.44,654.97 511.20,661.92 514.40,664.91 C515.82,666.24 517.90,669.80 519.04,672.82 C520.17,675.85 522.17,679.60 523.48,681.15 C524.79,682.71 526.18,685.00 526.57,686.24 C526.96,687.49 528.32,689.75 529.60,691.28 C530.88,692.81 532.33,695.51 532.82,697.28 C533.57,699.99 536.67,705.47 539.74,709.51 C540.16,710.06 541.58,712.53 542.90,715.01 C544.22,717.48 545.85,720.17 546.53,721.00 C547.21,721.83 548.05,723.45 548.41,724.62 C548.76,725.78 549.94,727.54 551.03,728.52 C552.11,729.51 553.00,731.07 553.00,732.01 C553.00,732.94 554.37,735.13 556.04,736.88 C557.71,738.63 558.85,740.43 558.58,740.87 C558.30,741.32 559.86,743.53 562.04,745.80 C564.22,748.07 566.00,750.78 566.00,751.83 C566.00,752.87 567.80,756.38 570.00,759.62 C572.20,762.85 574.00,766.00 574.00,766.61 C574.00,767.22 575.34,769.42 576.99,771.48 C578.63,773.55 580.39,776.76 580.91,778.63 C581.42,780.49 583.68,784.32 585.92,787.14 C590.53,792.93 590.99,795.40 587.78,797.12 C586.09,798.02 552.47,798.33 448.91,798.40 L 312.27 798.50 L 307.66 802.75 C305.12,805.09 302.69,807.00 302.26,807.00 C301.83,807.00 299.47,809.52 297.01,812.60 C294.55,815.68 290.96,818.94 289.03,819.85 C287.11,820.76 285.38,822.28 285.20,823.22 C284.81,825.20 278.71,831.56 275.61,833.20 C272.53,834.83 269.04,838.31 269.02,839.77 C269.01,840.47 267.88,841.56 266.50,842.18 C262.61,843.95 263.43,845.84 268.25,846.22 ZM 135.00 847.48 C112.23,850.78 103.81,850.14 96.55,844.60 C90.68,840.13 88.09,836.82 85.89,831.00 C83.39,824.38 83.82,819.38 87.54,811.52 C92.17,801.72 99.38,797.57 114.48,796.00 C150.16,792.30 179.17,778.85 203.09,754.93 C224.69,733.32 238.19,707.77 244.52,676.48 L 247.00 664.25 L 247.00 429.12 L 211.75 428.81 L 176.50 428.50 L 171.37 425.79 C161.92,420.81 156.30,410.62 157.25,400.17 C158.13,390.43 163.39,382.68 172.50,377.69 C176.37,375.57 177.67,375.49 211.75,375.18 L 247.00 374.86 L 247.00 325.18 C247.01,261.78 248.14,246.89 255.01,219.95 C260.41,198.78 275.02,169.66 288.54,153.11 C298.91,140.41 317.87,122.41 328.00,115.64 C357.48,95.94 381.36,86.53 415.00,81.35 C424.54,79.88 433.39,79.57 467.00,79.54 C506.11,79.50 507.66,79.57 512.05,81.61 C518.43,84.56 523.67,89.46 526.81,95.41 L 529.50 100.50 L 529.50 185.50 L 476.50 185.50 L 475.97 133.00 L 458.73 133.01 C440.70,133.02 422.33,134.26 413.00,136.09 C354.99,147.50 312.02,192.86 302.91,252.30 C302.07,257.74 301.39,259.79 300.66,259.06 C298.92,257.32 299.49,248.85 301.81,241.98 C303.02,238.42 305.33,231.00 306.94,225.50 C308.54,220.00 310.79,213.72 311.93,211.54 C313.07,209.36 314.00,206.94 314.00,206.17 C314.00,205.40 315.37,203.13 317.03,201.13 C321.92,195.28 322.06,195.09 323.31,192.21 C325.20,187.84 336.94,173.76 337.04,175.73 C337.06,176.15 337.71,175.04 338.49,173.25 C339.27,171.46 340.41,170.00 341.03,170.00 C341.65,170.00 343.87,168.31 345.97,166.25 C348.06,164.19 352.41,160.41 355.64,157.85 C358.86,155.29 362.56,152.27 363.85,151.14 C365.15,150.01 367.85,148.57 369.85,147.93 C371.86,147.30 374.49,146.16 375.69,145.40 C381.47,141.78 405.76,134.34 417.51,132.59 C428.87,130.90 434.73,130.60 458.15,130.54 C459.86,130.54 461.43,130.52 462.88,130.50 C470.43,130.42 474.50,130.38 476.67,132.39 C479.22,134.75 479.15,139.93 478.99,151.18 C478.97,153.02 478.94,155.02 478.92,157.19 C478.78,174.23 479.05,180.36 479.99,181.49 C481.04,182.75 484.86,183.00 503.56,183.00 C520.16,183.00 526.08,182.68 526.64,181.77 C527.06,181.09 527.48,163.44 527.58,142.54 L 527.75 104.55 L 524.78 98.89 C520.15,90.06 514.90,85.69 506.00,83.27 C498.98,81.36 496.30,81.26 464.50,81.62 C445.80,81.84 428.02,82.43 425.00,82.93 C421.98,83.44 415.45,84.37 410.50,84.99 C405.55,85.61 399.70,86.62 397.50,87.22 C395.30,87.82 391.70,88.65 389.50,89.07 C385.40,89.84 364.87,97.49 359.50,100.25 C357.85,101.09 354.48,102.76 352.00,103.96 C344.35,107.64 336.51,112.40 334.20,114.75 C332.99,115.99 331.36,117.00 330.57,117.00 C329.78,117.00 328.17,118.35 327.00,120.00 C325.83,121.65 324.40,123.00 323.82,123.00 C323.25,123.00 321.64,124.01 320.25,125.25 C305.08,138.75 300.58,143.13 296.50,148.36 C294.85,150.48 291.85,153.94 289.83,156.06 C287.81,158.18 285.85,160.95 285.48,162.21 C285.11,163.47 283.29,165.92 281.44,167.66 C279.59,169.40 277.76,172.09 277.38,173.64 C276.99,175.19 275.20,178.50 273.41,180.99 C271.62,183.48 269.84,186.86 269.44,188.51 C269.04,190.15 267.21,194.45 265.36,198.06 C263.51,201.68 262.00,205.95 261.99,207.56 C261.98,209.18 260.87,212.87 259.52,215.78 C256.89,221.44 254.88,230.66 252.29,249.00 C251.02,258.01 250.54,272.80 250.08,317.22 C249.54,369.87 249.37,374.06 247.71,375.72 C246.08,377.35 243.05,377.52 212.21,377.74 C193.67,377.88 177.82,378.28 177.00,378.64 C176.18,379.01 175.04,379.40 174.47,379.53 C172.25,380.02 165.59,385.16 165.39,386.54 C165.27,387.34 164.01,389.39 162.59,391.08 C160.44,393.63 160.00,395.16 160.00,400.11 C160.00,406.71 161.69,411.66 165.49,416.17 C166.87,417.81 168.00,419.76 168.00,420.50 C168.00,421.25 170.40,422.75 173.34,423.85 C178.16,425.66 181.90,425.90 212.10,426.36 C230.48,426.65 246.27,427.17 247.18,427.52 C248.10,427.87 249.10,428.81 249.41,429.62 C250.49,432.43 250.12,661.91 249.03,663.94 C248.46,665.00 248.00,667.59 247.99,669.68 C247.95,684.71 234.37,720.96 224.40,732.66 C221.98,735.50 220.00,738.14 220.00,738.54 C220.00,738.93 218.54,740.91 216.75,742.92 C214.96,744.93 212.38,748.10 211.00,749.96 C206.68,755.80 195.60,766.74 193.30,767.44 C192.09,767.80 190.83,768.95 190.51,769.98 C190.18,771.02 188.64,772.14 187.09,772.48 C185.54,772.82 183.32,774.20 182.14,775.55 C180.97,776.90 179.45,778.01 178.76,778.03 C178.07,778.04 175.05,779.61 172.05,781.53 C169.05,783.44 165.80,785.00 164.82,785.00 C163.85,785.00 160.46,786.17 157.28,787.59 C144.58,793.28 130.92,796.75 117.59,797.67 C106.51,798.44 102.28,799.83 96.61,804.57 C88.38,811.45 86.05,818.59 88.71,828.87 C90.52,835.89 94.49,840.28 102.50,844.12 C107.67,846.60 109.68,847.00 117.00,846.98 C121.80,846.98 127.31,846.34 129.66,845.52 C131.94,844.73 136.89,843.76 140.66,843.39 C144.42,843.01 149.93,841.86 152.91,840.85 C155.88,839.83 159.26,839.00 160.41,839.00 C161.57,839.00 164.63,837.88 167.21,836.50 C169.80,835.12 172.36,834.00 172.91,834.00 C173.78,834.00 186.41,827.99 196.61,822.74 C198.49,821.76 200.92,820.08 202.01,818.99 C203.11,817.89 204.89,817.00 205.97,817.00 C207.05,817.00 208.95,815.64 210.17,813.98 C212.26,811.16 214.19,809.68 222.60,804.46 C224.40,803.34 226.85,801.19 228.03,799.68 C229.22,798.18 233.86,793.73 238.35,789.80 C242.83,785.87 247.18,781.44 248.00,779.94 C248.82,778.45 251.65,774.81 254.28,771.86 C259.98,765.45 265.71,757.73 267.22,754.41 C267.83,753.08 268.92,752.00 269.64,752.00 C270.37,752.00 271.27,750.78 271.64,749.28 C272.02,747.78 273.14,745.19 274.13,743.51 C275.12,741.83 276.63,738.47 277.49,736.03 C278.35,733.59 279.83,730.74 280.78,729.69 C281.72,728.65 282.44,727.50 282.37,727.15 C282.19,726.25 284.84,719.05 288.59,710.24 C289.36,708.44 290.26,705.07 290.59,702.74 C290.93,700.41 292.24,695.35 293.50,691.50 C296.21,683.28 297.22,677.74 297.53,669.50 C297.65,666.20 297.81,610.85 297.89,546.50 C297.97,474.38 298.39,428.92 298.98,428.00 C299.80,426.70 304.47,426.54 333.19,426.82 L 366.44 427.15 L 373.72 423.35 C377.72,421.26 381.00,419.00 381.00,418.31 C381.00,417.63 381.85,416.62 382.88,416.06 C387.69,413.49 389.94,396.76 386.14,391.88 C385.11,390.57 383.99,388.60 383.65,387.49 C383.30,386.39 382.18,385.04 381.15,384.49 C380.12,383.95 377.48,382.25 375.29,380.72 C374.43,380.12 373.83,379.63 373.17,379.24 C370.52,377.67 366.93,377.70 340.93,377.87 C338.67,377.88 336.23,377.90 333.60,377.91 C314.15,378.03 301.33,377.73 300.74,377.14 C298.70,375.10 298.35,365.98 298.49,318.50 C298.62,273.79 299.08,263.00 300.88,263.00 C301.22,263.00 301.38,288.20 301.23,319.00 L 300.97 375.00 L 334.23 375.01 C353.79,375.01 369.02,375.43 371.18,376.03 C391.07,381.56 397.35,406.71 382.45,421.16 C374.79,428.58 373.24,428.83 334.79,428.92 L 301.09 429.00 L 300.72 550.25 C300.36,669.44 300.32,671.69 298.20,682.72 C290.75,721.57 276.79,750.55 250.30,782.13 C222.50,815.29 176.22,841.52 135.00,847.48 Z" fill="rgb(197,165,83)"/>
<path d="M 303.39 249.34 C302.15,257.30 301.54,266.76 301.25,281.51 C301.19,270.16 301.06,263.00 300.88,263.00 C299.08,263.00 298.62,273.79 298.49,318.50 C298.35,365.98 298.70,375.10 300.74,377.14 C301.33,377.73 314.15,378.03 333.60,377.91 C336.23,377.90 338.67,377.88 340.93,377.87 C366.93,377.70 370.52,377.67 373.17,379.24 C373.83,379.63 374.43,380.12 375.29,380.72 C377.48,382.25 380.12,383.95 381.15,384.49 C382.18,385.04 383.30,386.39 383.65,387.49 C383.99,388.60 385.11,390.57 386.14,391.88 C389.94,396.76 387.69,413.49 382.88,416.06 C381.85,416.62 381.00,417.63 381.00,418.31 C381.00,419.00 377.72,421.26 373.72,423.35 L 366.44 427.15 L 333.19 426.82 C304.47,426.54 299.80,426.70 298.98,428.00 C298.39,428.92 297.97,474.38 297.89,546.50 C297.81,610.85 297.65,666.20 297.53,669.50 C297.22,677.74 296.21,683.28 293.50,691.50 C292.24,695.35 290.93,700.41 290.59,702.74 C290.26,705.07 289.36,708.44 288.59,710.24 C284.84,719.05 282.19,726.25 282.37,727.15 C282.44,727.50 281.72,728.65 280.78,729.69 C279.83,730.74 278.35,733.59 277.49,736.03 C276.63,738.47 275.12,741.83 274.13,743.51 C273.14,745.19 272.02,747.78 271.64,749.28 C271.27,750.78 270.37,752.00 269.64,752.00 C268.92,752.00 267.83,753.08 267.22,754.41 C265.71,757.73 259.98,765.45 254.28,771.86 C251.65,774.81 248.82,778.45 248.00,779.94 C247.18,781.44 242.83,785.87 238.35,789.80 C233.86,793.73 229.22,798.18 228.03,799.68 C226.85,801.19 224.40,803.34 222.60,804.46 C214.19,809.68 212.26,811.16 210.17,813.98 C208.95,815.64 207.05,817.00 205.97,817.00 C204.89,817.00 203.11,817.89 202.01,818.99 C200.92,820.08 198.49,821.76 196.61,822.74 C186.41,827.99 173.78,834.00 172.91,834.00 C172.36,834.00 169.80,835.12 167.21,836.50 C164.63,837.88 161.57,839.00 160.41,839.00 C159.26,839.00 155.88,839.83 152.91,840.85 C149.93,841.86 144.42,843.01 140.66,843.39 C136.89,843.76 131.94,844.73 129.66,845.52 C127.31,846.34 121.80,846.98 117.00,846.98 C109.68,847.00 107.67,846.60 102.50,844.12 C94.49,840.28 90.52,835.89 88.71,828.87 C86.05,818.59 88.38,811.45 96.61,804.57 C102.28,799.83 106.51,798.44 117.59,797.67 C130.92,796.75 144.58,793.28 157.28,787.59 C160.46,786.17 163.85,785.00 164.82,785.00 C165.80,785.00 169.05,783.44 172.05,781.53 C175.05,779.61 178.07,778.04 178.76,778.03 C179.45,778.01 180.97,776.90 182.14,775.55 C183.32,774.20 185.54,772.82 187.09,772.48 C188.64,772.14 190.18,771.02 190.51,769.98 C190.83,768.95 192.09,767.80 193.30,767.44 C195.60,766.74 206.68,755.80 211.00,749.96 C212.38,748.10 214.96,744.93 216.75,742.92 C218.54,740.91 220.00,738.93 220.00,738.54 C220.00,738.14 221.98,735.50 224.40,732.66 C234.37,720.96 247.95,684.71 247.99,669.68 C248.00,667.59 248.46,665.00 249.03,663.94 C250.12,661.91 250.49,432.43 249.41,429.62 C249.10,428.81 248.10,427.87 247.18,427.52 C246.27,427.17 230.48,426.65 212.10,426.36 C181.90,425.90 178.16,425.66 173.34,423.85 C170.40,422.75 168.00,421.25 168.00,420.50 C168.00,419.76 166.87,417.81 165.49,416.17 C161.69,411.66 160.00,406.71 160.00,400.11 C160.00,395.16 160.44,393.63 162.59,391.08 C164.01,389.39 165.27,387.34 165.39,386.54 C165.59,385.16 172.25,380.02 174.47,379.53 C175.04,379.40 176.18,379.01 177.00,378.64 C177.82,378.28 193.67,377.88 212.21,377.74 C243.05,377.52 246.08,377.35 247.71,375.72 C249.37,374.06 249.54,369.87 250.08,317.22 C250.54,272.80 251.02,258.01 252.29,249.00 C254.88,230.66 256.89,221.44 259.52,215.78 C260.87,212.87 261.98,209.18 261.99,207.56 C262.00,205.95 263.51,201.68 265.36,198.06 C267.21,194.45 269.04,190.15 269.44,188.51 C269.84,186.86 271.62,183.48 273.41,180.99 C275.20,178.50 276.99,175.19 277.38,173.64 C277.76,172.09 279.59,169.40 281.44,167.66 C283.29,165.92 285.11,163.47 285.48,162.21 C285.85,160.95 287.81,158.18 289.83,156.06 C291.85,153.94 294.85,150.48 296.50,148.36 C300.58,143.13 305.08,138.75 320.25,125.25 C321.64,124.01 323.25,123.00 323.82,123.00 C324.40,123.00 325.83,121.65 327.00,120.00 C328.17,118.35 329.78,117.00 330.57,117.00 C331.36,117.00 332.99,115.99 334.20,114.75 C336.51,112.40 344.35,107.64 352.00,103.96 C354.48,102.76 357.85,101.09 359.50,100.25 C364.87,97.49 385.40,89.84 389.50,89.07 C391.70,88.65 395.30,87.82 397.50,87.22 C399.70,86.62 405.55,85.61 410.50,84.99 C415.45,84.37 421.98,83.44 425.00,82.93 C428.02,82.43 445.80,81.84 464.50,81.62 C496.30,81.26 498.98,81.36 506.00,83.27 C514.90,85.69 520.15,90.06 524.78,98.89 L 527.75 104.55 L 527.58 142.54 C527.48,163.44 527.06,181.09 526.64,181.77 C526.08,182.68 520.16,183.00 503.56,183.00 C484.86,183.00 481.04,182.75 479.99,181.49 C479.05,180.36 478.78,174.23 478.92,157.19 C478.94,155.02 478.97,153.02 478.99,151.18 C479.15,139.93 479.22,134.75 476.67,132.39 C474.50,130.38 470.43,130.42 462.88,130.50 C461.43,130.52 459.86,130.54 458.15,130.54 C434.73,130.60 428.87,130.90 417.51,132.59 C405.76,134.34 381.47,141.78 375.69,145.40 C374.49,146.16 371.86,147.30 369.85,147.93 C367.85,148.57 365.15,150.01 363.85,151.14 C362.56,152.27 358.86,155.29 355.64,157.85 C352.41,160.41 348.06,164.19 345.97,166.25 C343.87,168.31 341.65,170.00 341.03,170.00 C340.41,170.00 339.27,171.46 338.49,173.25 C337.71,175.04 337.06,176.15 337.04,175.73 C336.94,173.76 325.20,187.84 323.31,192.21 C322.06,195.09 321.92,195.28 317.03,201.13 C315.37,203.13 314.00,205.40 314.00,206.17 C314.00,206.94 313.07,209.36 311.93,211.54 C310.79,213.72 308.54,220.00 306.94,225.50 C305.33,231.00 303.02,238.42 301.81,241.98 C299.49,248.85 298.92,257.32 300.66,259.06 C301.39,259.79 302.07,257.74 302.91,252.30 C303.06,251.31 303.22,250.33 303.39,249.34 ZM 268.25 846.22 C263.43,845.84 262.61,843.95 266.50,842.18 C267.88,841.56 269.01,840.47 269.02,839.77 C269.04,838.31 272.53,834.83 275.61,833.20 C278.71,831.56 284.81,825.20 285.20,823.22 C285.38,822.28 287.11,820.76 289.03,819.85 C290.96,818.94 294.55,815.68 297.01,812.60 C299.47,809.52 301.83,807.00 302.26,807.00 C302.69,807.00 305.12,805.09 307.66,802.75 L 312.27 798.50 L 448.91 798.40 C552.47,798.33 586.09,798.02 587.78,797.12 C590.99,795.40 590.53,792.93 585.92,787.14 C583.68,784.32 581.42,780.49 580.91,778.63 C580.39,776.76 578.63,773.55 576.99,771.48 C575.34,769.42 574.00,767.22 574.00,766.61 C574.00,766.00 572.20,762.85 570.00,759.62 C567.80,756.38 566.00,752.87 566.00,751.83 C566.00,750.78 564.22,748.07 562.04,745.80 C559.86,743.53 558.30,741.32 558.58,740.87 C558.85,740.43 557.71,738.63 556.04,736.88 C554.37,735.13 553.00,732.94 553.00,732.01 C553.00,731.07 552.11,729.51 551.03,728.52 C549.94,727.54 548.76,725.78 548.41,724.62 C548.05,723.45 547.21,721.83 546.53,721.00 C545.85,720.17 544.22,717.48 542.90,715.01 C541.58,712.53 540.16,710.06 539.74,709.51 C536.67,705.47 533.57,699.99 532.82,697.28 C532.33,695.51 530.88,692.81 529.60,691.28 C528.32,689.75 526.96,687.49 526.57,686.24 C526.18,685.00 524.79,682.71 523.48,681.15 C522.17,679.60 520.17,675.85 519.04,672.82 C517.90,669.80 515.82,666.24 514.40,664.91 C511.20,661.92 506.44,654.97 505.45,651.84 C505.05,650.55 503.88,648.91 502.86,648.19 C501.84,647.47 501.00,645.86 501.00,644.60 C501.00,643.34 500.10,641.50 499.00,640.50 C497.90,639.50 497.00,638.33 497.00,637.90 C497.00,637.46 495.70,635.17 494.12,632.80 C492.54,630.44 489.98,626.03 488.43,623.00 C486.89,619.97 483.91,614.88 481.81,611.68 C479.72,608.48 478.00,605.64 478.00,605.36 C478.00,605.09 476.91,603.43 475.59,601.68 C474.26,599.93 472.01,595.93 470.58,592.79 C469.15,589.65 466.81,585.82 465.39,584.29 C463.96,582.76 461.52,578.80 459.96,575.50 C455.53,566.14 449.26,555.10 446.51,551.83 C445.13,550.19 444.00,548.25 444.00,547.52 C444.00,546.80 442.42,543.86 440.50,541.00 C438.58,538.14 437.00,535.64 437.00,535.44 C437.00,535.25 435.91,533.48 434.57,531.51 C433.24,529.54 431.84,526.57 431.48,524.90 C431.11,523.23 430.14,521.61 429.31,521.29 C428.48,520.97 426.91,518.64 425.82,516.11 C423.88,511.62 423.83,509.06 423.78,414.00 C423.75,344.55 424.06,315.78 424.85,314.00 C425.46,312.62 427.21,309.95 428.73,308.06 C430.25,306.16 430.83,305.00 430.00,305.48 C429.17,305.96 429.74,305.07 431.27,303.52 C432.79,301.97 434.31,300.97 434.65,301.31 C434.99,301.65 437.25,300.76 439.68,299.34 C443.02,297.38 445.01,296.87 447.81,297.25 C453.31,297.98 465.42,304.23 465.87,306.56 C466.07,307.62 467.30,309.48 468.59,310.67 C470.25,312.21 470.91,313.86 470.82,316.27 C470.75,318.15 471.09,320.32 471.58,321.09 C472.08,321.89 472.53,361.33 472.62,411.50 C472.76,498.22 472.81,500.62 474.76,505.06 C475.87,507.57 477.40,510.27 478.17,511.06 C480.35,513.30 486.00,523.78 486.00,525.59 C486.00,526.48 487.01,528.51 488.25,530.09 C489.49,531.67 491.51,534.28 492.74,535.88 C493.97,537.48 496.60,541.87 498.59,545.64 C500.57,549.41 502.99,553.40 503.95,554.50 C504.91,555.60 506.69,558.53 507.89,561.00 C509.10,563.47 511.00,566.66 512.11,568.07 C513.22,569.49 514.23,571.38 514.36,572.28 C514.50,573.17 515.99,576.07 517.68,578.70 C519.37,581.34 521.54,585.08 522.51,587.00 C523.48,588.92 524.89,590.86 525.65,591.31 C526.41,591.75 528.43,594.90 530.14,598.31 C531.85,601.71 534.03,605.62 534.98,607.00 C535.93,608.38 536.98,610.63 537.32,612.02 C537.65,613.41 538.76,615.44 539.78,616.54 C542.14,619.06 549.27,631.45 555.32,643.50 C556.42,645.70 558.25,648.54 559.39,649.80 C561.45,652.10 565.31,658.63 570.76,669.00 C572.35,672.03 574.84,676.24 576.31,678.36 C577.77,680.49 580.10,684.54 581.48,687.36 C582.87,690.19 585.86,694.95 588.13,697.94 C592.48,703.67 598.00,713.59 598.00,715.67 C598.00,716.35 599.12,718.11 600.50,719.59 C601.88,721.08 603.00,722.74 603.00,723.29 C603.00,724.26 606.01,729.11 614.28,741.43 C616.47,744.69 618.66,748.79 619.14,750.55 C619.62,752.30 621.14,755.26 622.51,757.12 C623.87,758.98 625.95,762.53 627.12,765.00 C629.84,770.73 637.99,783.25 639.70,784.30 C640.41,784.74 641.00,785.98 641.00,787.06 C641.00,788.13 642.12,789.99 643.50,791.19 C644.88,792.38 646.00,794.34 646.00,795.55 C646.00,796.75 646.83,798.80 647.84,800.12 C651.83,805.29 653.08,817.34 650.60,826.67 C648.58,834.27 644.10,839.21 635.39,843.46 L 627.99 847.06 L 450.25 846.81 C352.49,846.67 270.59,846.40 268.25,846.22 ZM 321.46 200.19 C317.28,207.55 312.95,216.63 310.21,223.83 C313.26,215.52 317.03,207.61 321.46,200.19 ZM 427.30 134.27 C416.23,135.34 406.87,137.16 397.81,139.95 C402.74,138.40 407.81,137.11 413.00,136.09 C416.60,135.38 421.54,134.76 427.30,134.27 ZM 361.90 157.26 C354.01,162.71 346.45,169.12 339.75,176.05 C346.43,169.02 353.84,162.72 361.90,157.26 ZM 301.00 368.09 L 301.00 375.00 L 300.97 375.00 ZM 308.31 229.34 C307.85,230.80 307.42,232.21 307.02,233.57 C307.43,232.15 307.86,230.74 308.31,229.34 Z" fill="rgb(204,161,60)"/>
<path d="M 0.00 472.00 L 0.00 0.00 L 368.50 0.00 L 737.00 0.00 L 737.00 472.00 L 737.00 944.00 L 368.50 944.00 L 0.00 944.00 L 0.00 472.00 ZM 135.00 847.48 C176.22,841.52 222.50,815.29 250.30,782.13 C276.79,750.55 290.75,721.57 298.20,682.72 C300.32,671.69 300.36,669.44 300.72,550.25 L 301.09 429.00 L 334.79 428.92 C373.24,428.83 374.79,428.58 382.45,421.16 C397.35,406.71 391.07,381.56 371.18,376.03 C369.02,375.43 353.79,375.01 334.25,375.01 L 301.00 375.00 L 301.00 321.22 C301.00,258.54 301.69,250.23 308.67,228.19 C311.70,218.62 319.43,202.71 325.41,193.70 C338.63,173.79 360.96,155.01 382.50,145.67 C404.37,136.18 423.39,133.03 458.73,133.01 L 475.97 133.00 L 476.23 159.25 L 476.50 185.50 L 503.00 185.50 L 529.50 185.50 L 529.50 143.00 L 529.50 100.50 L 526.81 95.41 C523.67,89.46 518.43,84.56 512.05,81.61 C507.66,79.57 506.11,79.50 467.00,79.54 C433.39,79.57 424.54,79.88 415.00,81.35 C381.36,86.53 357.48,95.94 328.00,115.64 C317.87,122.41 298.91,140.41 288.54,153.11 C275.02,169.66 260.41,198.78 255.01,219.95 C248.14,246.89 247.01,261.78 247.00,325.18 L 247.00 374.86 L 211.75 375.18 C177.67,375.49 176.37,375.57 172.50,377.69 C163.39,382.68 158.13,390.43 157.25,400.17 C156.30,410.62 161.92,420.81 171.37,425.79 L 176.50 428.50 L 211.75 428.81 L 247.00 429.12 L 247.00 546.68 L 247.00 664.25 L 244.52 676.48 C238.19,707.77 224.69,733.32 203.09,754.93 C179.17,778.85 150.16,792.30 114.48,796.00 C99.38,797.57 92.17,801.72 87.54,811.52 C83.82,819.38 83.39,824.38 85.89,831.00 C88.09,836.82 90.68,840.13 96.55,844.60 C103.81,850.14 112.23,850.78 135.00,847.48 ZM 632.00 848.51 C640.35,846.29 647.89,840.47 651.50,833.47 C654.06,828.50 654.55,826.31 654.84,818.53 C655.29,806.37 654.09,803.56 633.91,769.62 C616.69,740.65 612.52,733.60 601.01,714.00 C596.97,707.12 589.76,694.97 584.99,687.00 C571.66,664.72 563.41,650.72 555.24,636.50 C551.13,629.35 542.70,614.95 536.51,604.50 C515.23,568.58 508.69,557.49 506.73,554.00 C505.65,552.08 499.05,540.83 492.06,529.00 C485.08,517.17 478.38,505.79 477.18,503.69 L 475.00 499.89 L 474.99 410.69 C474.98,314.07 475.03,315.18 469.54,306.89 C457.85,289.22 430.54,292.58 423.05,312.61 C421.04,317.98 421.00,319.79 421.00,415.80 L 421.00 513.53 L 427.47 524.52 C431.03,530.56 435.17,537.53 436.67,540.00 C438.17,542.47 442.38,549.67 446.02,556.00 C449.66,562.33 459.99,579.88 468.98,595.00 C477.96,610.12 487.13,625.65 489.34,629.50 C491.56,633.35 497.39,643.25 502.31,651.50 C507.23,659.75 514.43,671.90 518.32,678.50 C522.21,685.10 538.81,712.92 555.21,740.32 C571.61,767.73 585.71,791.46 586.54,793.07 L 588.05 796.00 L 449.48 796.00 L 310.91 796.00 L 296.21 809.68 C277.65,826.93 256.00,848.23 256.00,849.24 C256.00,849.66 339.36,849.99 441.25,849.99 C600.64,849.98 627.27,849.77 632.00,848.51 Z" fill="rgb(0, 0, 0, 0)"/>
</g>
</svg>